:FULLY-SPECIFIED
:FORCE-ALL-JOINTS-BE-3DOF
:DEGREES
951
root 1.09561 15.2474 32.7457 0 0 0
lfemur 7.00551 1.07455 4.03298
ltibia 0.302186 -0 0
lfoot 0 0 0
ltoes 0 0 0
rfemur 0 0 0
rtibia 49.2161 -0 0
rfoot -20.7345 4.50323 -0.012988
rtoes -42.42 0 0
lowerback 0 0 0
upperback 0 0 0
thorax -0.330733 -0.323712 -7.50063
lowerneck -6.60371 0.542676 4.52375
upperneck 0.940214 0.263691 3.37935
head 0 0 0
lclavicle 0 0 0
lhumerus -59.0426 -43.8904 112.855
lradius 55.4633 -0 0
lwrist 25.1396 0 0
lhand 0 0 0
lfingers 0 0 0
lthumb 62.3244 35.7363 -0.011919
rclavicle 0 0 0
rhumerus 0 0 0
rradius 29.0283 -0 0
rwrist 0 0 0
rhand -38.5806 -49.6182 0.0420075
rfingers 0 0 0
rthumb 0 0 0
952
root 1.08386 15.2353 32.739 0 0 0
lfemur 7.14603 1.21609 4.12008
ltibia 0.279571 -0 0
lfoot 0 0 0
ltoes 0 0 0
rfemur 0 0 0
rtibia 49.4133 -0 0
rfoot -20.9129 4.67667 -0.0153551
rtoes -42.3164 0 0
lowerback 0 0 0
upperback 0 0 0
thorax -0.328087 -0.328919 -7.44998
lowerneck -6.57878 0.596687 4.61588
upperneck 0.877845 0.332481 3.38235
head 0 0 0
lclavicle 0 0 0
lhumerus -58.9929 -43.8833 112.957
lradius 55.4112 -0 0
lwrist 25.1282 0 0
lhand 0 0 0
lfingers 0 0 0
lthumb 62.1797 35.9325 -0.0140912
rclavicle 0 0 0
rhumerus 0 0 0
rradius 28.9873 -0 0
rwrist 0 0 0
rhand -38.0901 -49.4141 0.0496658
rfingers 0 0 0
rthumb 0 0 0
953
root 1.0741 15.224 32.7317 0 0 0
lfemur 7.29452 1.36516 4.21234
ltibia 0.255715 -0 0
lfoot 0 0 0
ltoes 0 0 0
rfemur 0 0 0
rtibia 49.6213 -0 0
rfoot -21.1012 4.85964 -0.0172667
rtoes -42.207 0 0
lowerback 0 0 0
upperback 0 0 0
thorax -0.325302 -0.334415 -7.39654
lowerneck -6.55239 0.653623 4.71311
upperneck 0.812054 0.405053 3.38543
head 0 0 0
lclavicle 0 0 0
lhumerus -58.9406 -43.8759 113.064
lradius 55.3562 -0 0
lwrist 25.1163 0 0
lhand 0 0 0
lfingers 0 0 0
lthumb 62.0271 36.1396 -0.0158455
rclavicle 0 0 0
rhumerus 0 0 0
rradius 28.9441 -0 0
rwrist 0 0 0
rhand -37.5727 -49.1988 0.0558512
rfingers 0 0 0
rthumb 0 0 0
954
root 1.06614 15.2135 32.724 0 0 0
lfemur 7.44868 1.51942 4.30838
ltibia 0.230988 -0 0
lfoot 0 0 0
ltoes 0 0 0
rfemur 0 0 0
rtibia 49.8369 -0 0
rfoot -21.2963 5.04929 -0.0186136
rtoes -42.0936 0 0
lowerback 0 0 0
upperback 0 0 0
thorax -0.32242 -0.340114 -7.34115
lowerneck -6.52493 0.712587 4.8139
upperneck 0.743866 0.480275 3.38853
head 0 0 0
lclavicle 0 0 0
lhumerus -58.8863 -43.8683 113.176
lradius 55.2992 -0 0
lwrist 25.1039 0 0
lhand 0 0 0
lfingers 0 0 0
lthumb 61.8688 36.3541 -0.0170815
rclavicle 0 0 0
rhumerus 0 0 0
rradius 28.8993 -0 0
rwrist 0 0 0
rhand -37.0364 -48.9755 0.0602095
rfingers 0 0 0
rthumb 0 0 0
955
root 1.05981 15.2038 32.7159 0 0 0
lfemur 7.60622 1.67651 4.40679
ltibia 0.205765 -0 0
lfoot 0 0 0
ltoes 0 0 0
rfemur 0 0 0
rtibia 50.0568 -0 0
rfoot -21.4953 5.24275 -0.0193221
rtoes -41.9779 0 0
lowerback 0 0 0
upperback 0 0 0
thorax -0.319486 -0.345931 -7.28465
lowerneck -6.49681 0.772687 4.91675
upperneck 0.674312 0.557013 3.3916
head 0 0 0
lclavicle 0 0 0
lhumerus -58.8309 -43.8606 113.289
lradius 55.241 -0 0
lwrist 25.0912 0 0
lhand 0 0 0
lfingers 0 0 0
lthumb 61.7074 36.573 -0.0177317
rclavicle 0 0 0
rhumerus 0 0 0
rradius 28.8536 -0 0
rwrist 0 0 0
rhand -36.4893 -48.7478 0.0625022
rfingers 0 0 0
rthumb 0 0 0
956
root 1.05492 15.1948 32.7076 0 0 0
lfemur 7.76482 1.83411 4.50612
ltibia 0.180417 -0 0
lfoot 0 0 0
ltoes 0 0 0
rfemur 0 0 0
rtibia 50.2778 -0 0
rfoot -21.6954 5.43717 -0.019357
rtoes -41.8617 0 0
lowerback 0 0 0
upperback 0 0 0
thorax -0.316543 -0.351779 -7.22788
lowerneck -6.46845 0.833032 5.02014
upperneck 0.604418 0.634133 3.3946
head 0 0 0
lclavicle 0 0 0
lhumerus -58.7753 -43.8529 113.403
lradius 55.1826 -0 0
lwrist 25.0785 0 0
lhand 0 0 0
lfingers 0 0 0
lthumb 61.5451 36.793 -0.0177638
rclavicle 0 0 0
rhumerus 0 0 0
rradius 28.8076 -0 0
rwrist 0 0 0
rhand -35.9396 -48.5189 0.0626152
rfingers 0 0 0
rthumb 0 0 0
957
root 1.05129 15.1865 32.699 0 0 0
lfemur 7.92215 1.98988 4.60492
ltibia 0.155317 -0 0
lfoot 0 0 0
ltoes 0 0 0
rfemur 0 0 0
rtibia 50.4967 -0 0
rfoot -21.8934 5.62968 -0.0187229
rtoes -41.7466 0 0
lowerback 0 0 0
upperback 0 0 0
thorax -0.313635 -0.357572 -7.17166
lowerneck -6.44025 0.892734 5.12254
upperneck 0.535213 0.7105 3.39747
head 0 0 0
lclavicle 0 0 0
lhumerus -58.7202 -43.8454 113.516
lradius 55.1247 -0 0
lwrist 25.0659 0 0
lhand 0 0 0
lfingers 0 0 0
lthumb 61.3845 37.0108 -0.0171818
rclavicle 0 0 0
rhumerus 0 0 0
rradius 28.7622 -0 0
rwrist 0 0 0
rhand -35.3952 -48.2922 0.060563
rfingers 0 0 0
rthumb 0 0 0
